# Blender v2.77 (sub 0) OBJ File: ''
# www.blender.org
mtllib Tricky Exclamation Point.mtl
o MODELS_bin_004:poly001_Untitled
v -0.028906 0.336328 0.049609
v 0.028906 0.336328 0.049609
v -0.048047 0.322266 0.049609
v 0.048047 0.322266 0.049609
v 0.060156 0.228906 0.055469
v -0.027734 -0.277344 0.046484
v 0.027734 -0.277344 0.046484
v -0.046484 -0.291797 0.046484
v 0.046484 -0.291797 0.046484
v 0.046484 -0.324219 0.046484
v -0.027734 -0.277344 -0.046484
v -0.046484 -0.291797 -0.046484
v 0.027734 -0.277344 -0.046484
v 0.046484 -0.291797 -0.046484
v -0.028906 0.336328 -0.049609
v -0.048047 0.322266 -0.049609
v 0.028906 0.336328 -0.049609
v 0.048047 0.322266 -0.049609
v 0.008594 -0.184375 0.024609
v -0.008594 -0.184375 0.024609
v 0.016016 -0.173828 0.024609
v -0.016016 -0.173828 0.024609
v -0.060156 0.228906 0.055469
v -0.008594 -0.184375 -0.024609
v 0.008594 -0.184375 -0.024609
v -0.016016 -0.173828 -0.024609
v 0.016016 -0.173828 -0.024609
v -0.060156 0.228906 -0.055469
v 0.060156 0.228906 -0.055469
v -0.026953 -0.338672 -0.046484
v 0.028906 -0.338672 -0.046484
v -0.046484 -0.324219 -0.046484
v 0.046484 -0.324219 -0.046484
v 0.028906 -0.338672 0.046484
v -0.026953 -0.338672 0.046484
v -0.046484 -0.324219 0.046484
v 0.028906 -0.338672 0.046484
v 0.046484 -0.324219 0.046484
v 0.060937 -0.328516 0.021484
v 0.060937 -0.287500 0.021484
v 0.060937 -0.287500 -0.021484
v 0.036719 -0.269922 -0.021484
v 0.046484 -0.291797 -0.046484
v 0.027734 -0.277344 -0.046484
v -0.046484 -0.291797 0.046484
v -0.046484 -0.324219 0.046484
v -0.060937 -0.328516 0.021484
v -0.035547 -0.346094 0.021484
v -0.035547 -0.346094 -0.021484
v 0.037500 -0.346094 -0.021484
v -0.026953 -0.338672 -0.046484
v 0.028906 -0.338672 -0.046484
v -0.028906 0.336328 0.049609
v -0.048047 0.322266 0.049609
v -0.064453 0.332422 0.023047
v -0.080469 0.231250 0.025781
v -0.080469 0.231250 -0.025781
v -0.021484 -0.183984 -0.011328
v -0.060156 0.228906 -0.055469
v -0.016016 -0.173828 -0.024609
v -0.016016 -0.173828 0.024609
v -0.008594 -0.184375 0.024609
v -0.011719 -0.195312 0.011328
v 0.011719 -0.195312 0.011328
v 0.011719 -0.195312 -0.011328
v 0.021484 -0.183984 -0.011328
v 0.008594 -0.184375 -0.024609
v 0.016016 -0.173828 -0.024609
v 0.028906 0.336328 0.049609
v -0.038672 0.347266 0.023047
v -0.064453 0.332422 -0.023047
v -0.048047 0.322266 -0.049609
v -0.060156 0.228906 0.055469
v -0.021484 -0.183984 0.011328
v -0.011719 -0.195312 -0.011328
v -0.008594 -0.184375 -0.024609
v 0.048047 0.322266 0.049609
v 0.038672 0.347266 0.023047
v -0.038672 0.347266 -0.023047
v -0.028906 0.336328 -0.049609
v 0.060156 0.228906 0.055469
v 0.064453 0.332422 0.023047
v 0.038672 0.347266 -0.023047
v 0.028906 0.336328 -0.049609
v 0.046484 -0.291797 0.046484
v 0.027734 -0.277344 0.046484
v 0.036719 -0.269922 0.021484
v -0.036719 -0.269922 0.021484
v -0.036719 -0.269922 -0.021484
v -0.060937 -0.287500 -0.021484
v -0.027734 -0.277344 -0.046484
v -0.046484 -0.291797 -0.046484
v 0.016016 -0.173828 0.024609
v 0.080469 0.231250 0.025781
v 0.064453 0.332422 -0.023047
v 0.048047 0.322266 -0.049609
v 0.008594 -0.184375 0.024609
v 0.021484 -0.183984 0.011328
v 0.080469 0.231250 -0.025781
v 0.060156 0.228906 -0.055469
v -0.046484 -0.324219 -0.046484
v -0.060937 -0.328516 -0.021484
v -0.060937 -0.287500 0.021484
v -0.027734 -0.277344 0.046484
v -0.026953 -0.338672 0.046484
v 0.037500 -0.346094 0.021484
v 0.060937 -0.328516 -0.021484
v 0.046484 -0.324219 -0.046484
vt 0.4121 0.0205
vt 0.6572 0.0205
vt 0.6572 0.0205
vt 1.0000 0.3877
vt 1.0000 0.3877
vt 0.9824 0.6328
vt 1.0000 0.3877
vt 0.9824 0.6328
vt 0.3418 1.0000
vt 0.0000 0.6328
vt 0.0000 0.6328
vt 0.0166 0.3877
vt 0.0166 0.3877
vt 0.4121 0.0205
vt 0.0166 0.3877
vt 0.4121 0.0205
vt 0.8525 1.0000
vt 0.7998 1.0000
vt 0.7998 1.0000
vt 0.4863 0.6543
vt 0.4863 0.6543
vt 0.0010 0.0742
vt 0.4863 0.6543
vt 0.0010 0.0742
vt 0.0010 0.0742
vt 0.0000 0.0264
vt 0.0000 0.0264
vt 0.0273 0.0000
vt 0.0273 0.0000
vt 0.0752 0.0059
vt 0.0273 0.0000
vt 0.0752 0.0059
vt 0.9375 0.9219
vt 0.8525 1.0000
vt 0.7998 1.0000
vt 0.7998 1.0000
vt 0.4863 0.6543
vt 0.0010 0.0742
vt 0.0000 0.0264
vt 0.0000 0.0264
vt 0.9414 0.8691
vt 0.9375 0.9219
vt 0.8525 1.0000
vt 0.8525 1.0000
vt 0.6182 0.5312
vt 0.9414 0.8691
vt 0.9375 0.9219
vt 0.9375 0.9219
vt 1.0000 0.3877
vt 0.9824 0.6328
vt 0.9824 0.6328
vt 0.5869 1.0000
vt 0.5869 1.0000
vt 0.3418 1.0000
vt 0.5869 1.0000
vt 0.3418 1.0000
vt 0.0752 0.0059
vt 0.6182 0.5312
vt 0.9414 0.8691
vt 0.9414 0.8691
vt 0.0273 0.0000
vt 0.0752 0.0059
vt 0.6182 0.5312
vt 0.6182 0.5312
vt 0.0000 0.6328
vt 0.0000 0.6328
vt 0.3418 1.0000
vt 0.5869 1.0000
vt 0.0166 0.3877
vt 0.4121 0.0205
vt 0.6572 0.0205
vt 0.6572 0.0205
vt 0.8525 1.0000
vt 0.7998 1.0000
vt 0.9375 0.9219
vt 0.9414 0.8691
vt 0.6182 0.5312
vt 0.5869 1.0000
vt 0.3418 1.0000
vt 0.9824 0.6328
vt 1.0000 0.3877
vt 0.6572 0.0205
vt 0.5869 1.0000
vt 0.9824 0.6328
vt 0.3418 1.0000
vt 1.0000 0.3877
vt 0.8525 1.0000
vt 0.9375 0.9219
vt 0.7998 1.0000
vt 0.9414 0.8691
vt 0.0273 0.0000
vt 0.0752 0.0059
vt 0.0000 0.0264
vt 0.0010 0.0742
vt 0.4863 0.6543
vt 0.0000 0.0264
vt 0.0010 0.0742
vt 0.0273 0.0000
vt 0.0752 0.0059
vt 0.4863 0.6543
vt 0.6182 0.5312
vt 0.0166 0.3877
vt 0.0000 0.6328
vt 0.4121 0.0205
vt 0.6572 0.0205
vt 0.4121 0.0205
vt 0.0166 0.3877
vt 0.0000 0.6328
vn 0.3279 -0.9324 -0.1521
vn 0.8775 -0.4214 0.2289
vn 0.8805 -0.3951 -0.2620
vn 0.8626 0.4243 0.2756
vn 0.8683 0.4442 -0.2207
vn 0.3473 0.9234 -0.1637
vn 0.8718 0.4212 0.2500
vn 0.3229 0.9311 0.1694
vn -0.8717 0.4263 -0.2418
vn -0.8569 -0.4553 0.2417
vn -0.8720 -0.3894 -0.2966
vn -0.3269 -0.9176 0.2262
vn -0.2821 -0.9467 -0.1554
vn 0.3551 -0.9111 -0.2092
vn -0.2963 -0.9402 0.1680
vn 0.3279 -0.9324 0.1520
vn -0.2868 0.9578 0.0210
vn -0.8163 0.5249 0.2413
vn -0.8479 0.5301 -0.0044
vn -0.9584 0.0239 0.2844
vn -0.9577 -0.0086 -0.2876
vn -0.8288 -0.4734 -0.2982
vn -0.9986 0.0122 -0.0520
vn -0.9276 -0.3568 0.1106
vn -0.9276 -0.3568 -0.1106
vn -0.3837 -0.8817 0.2747
vn -0.4188 -0.8769 0.2361
vn 0.4142 -0.8308 0.3719
vn 0.3715 -0.8922 -0.2569
vn 0.8413 -0.4731 -0.2615
vn 0.4229 -0.8523 -0.3079
vn 0.9300 -0.3603 0.0728
vn 0.2798 0.9596 -0.0294
vn -0.2850 0.9371 0.2015
vn -0.7887 0.5649 -0.2426
vn -0.8479 0.5301 0.0044
vn -0.9986 0.0122 0.0520
vn -0.8608 -0.4500 0.2377
vn -0.4375 -0.8487 -0.2972
vn -0.4188 -0.8769 -0.2361
vn 0.8540 0.5177 -0.0508
vn 0.2453 0.9395 0.2393
vn -0.2384 0.9450 -0.2241
vn -0.2868 0.9578 -0.0210
vn 0.9985 0.0117 0.0526
vn 0.7844 0.5617 0.2632
vn 0.2540 0.9427 -0.2163
vn 0.2798 0.9596 0.0294
vn 0.8718 0.4212 -0.2500
vn 0.2909 0.9367 0.1950
vn 0.3229 0.9311 -0.1694
vn -0.3499 0.9200 0.1766
vn -0.2984 0.9321 -0.2054
vn -0.8648 0.4188 -0.2770
vn -0.3254 0.9332 0.1526
vn -0.8717 0.4263 0.2418
vn 0.9300 -0.3603 -0.0728
vn 0.9600 -0.0033 0.2798
vn 0.8059 0.5198 -0.2835
vn 0.8540 0.5177 0.0508
vn 0.4229 -0.8523 0.3079
vn 0.8953 -0.3754 0.2397
vn 0.9519 0.0227 -0.3057
vn 0.9985 0.0117 -0.0526
vn -0.8720 -0.3894 0.2966
vn -0.8710 -0.4305 -0.2367
vn -0.8846 0.4004 0.2390
vn -0.3254 0.9332 -0.1526
vn -0.2963 -0.9402 -0.1680
vn 0.3310 -0.9330 0.1415
vn 0.8676 -0.4368 -0.2375
vn 0.8805 -0.3951 0.2620
vn 0.2433 -0.6246 0.7421
vn 0.3720 -0.1647 0.9135
vn -0.2433 -0.6246 0.7421
vn -0.3711 -0.1642 0.9139
vn -0.5007 -0.0095 0.8656
vn 0.2403 -0.6752 0.6974
vn 0.4326 -0.2014 0.8788
vn -0.2403 -0.6752 0.6974
vn -0.4326 -0.2014 0.8788
vn -0.4281 0.1984 0.8817
vn 0.2403 -0.6752 -0.6974
vn -0.2403 -0.6752 -0.6974
vn 0.4326 -0.2014 -0.8788
vn -0.4326 -0.2014 -0.8788
vn 0.2433 -0.6246 -0.7421
vn -0.2433 -0.6246 -0.7421
vn 0.3720 -0.1647 -0.9135
vn -0.3711 -0.1642 -0.9139
vn -0.2501 0.4646 0.8495
vn -0.3971 0.1146 0.9106
vn 0.2501 0.4646 0.8495
vn 0.3961 0.1142 0.9111
vn 0.4982 -0.0095 0.8670
vn 0.2501 0.4646 -0.8495
vn 0.3971 0.1146 -0.9106
vn -0.2501 0.4646 -0.8495
vn -0.3961 0.1142 -0.9111
vn 0.5014 -0.0095 -0.8652
vn -0.4982 -0.0095 -0.8670
vn 0.2474 0.6780 -0.6922
vn 0.4221 0.1986 -0.8845
vn -0.2614 0.6673 -0.6974
vn -0.4281 0.1984 -0.8817
vn -0.2614 0.6673 0.6974
vn 0.2474 0.6780 0.6922
vn 0.4221 0.1986 0.8845
usemtl MODELS_bin_004:poly000Material
s 1
f 37/1/1 39/2/2 38/3/3
f 38/3/3 39/2/2 40/4/4
f 39/2/2 41/5/5 40/4/4
f 40/4/4 41/5/5 42/6/6
f 41/5/5 43/7/7 42/6/6
f 42/6/6 43/7/7 44/8/8
f 45/9/9 47/10/10 46/11/11
f 46/11/11 47/10/10 48/12/12
f 47/10/10 49/13/13 48/12/12
f 48/12/12 49/13/13 50/14/14
f 49/13/13 51/15/15 50/14/14
f 50/14/14 51/15/15 52/16/16
f 53/17/17 55/18/18 54/19/19
f 54/19/19 55/18/18 56/20/20
f 55/18/18 57/21/21 56/20/20
f 56/20/20 57/21/21 58/22/22
f 57/21/21 59/23/23 58/22/22
f 58/22/22 59/23/23 60/24/24
f 61/25/25 63/26/26 62/27/27
f 62/27/27 63/26/26 64/28/28
f 63/26/26 65/29/29 64/28/28
f 64/28/28 65/29/29 66/30/30
f 65/29/29 67/31/31 66/30/30
f 66/30/30 67/31/31 68/32/32
f 69/33/33 70/34/34 53/17/17
f 53/17/17 70/34/34 55/18/18
f 70/34/34 71/35/35 55/18/18
f 55/18/18 71/35/35 57/21/21
f 71/35/35 72/36/36 57/21/21
f 57/21/21 72/36/36 59/23/23
f 73/37/37 74/38/38 61/25/25
f 61/25/25 74/38/38 63/26/26
f 74/38/38 75/39/39 63/26/26
f 63/26/26 75/39/39 65/29/29
f 75/39/39 76/40/40 65/29/29
f 65/29/29 76/40/40 67/31/31
f 77/41/41 78/42/42 69/33/33
f 69/33/33 78/42/42 70/34/34
f 78/42/42 79/43/43 70/34/34
f 70/34/34 79/43/43 71/35/35
f 79/43/43 80/44/44 71/35/35
f 71/35/35 80/44/44 72/36/36
f 54/19/19 56/20/20 73/37/37
f 73/37/37 56/20/20 74/38/38
f 56/20/20 58/22/22 74/38/38
f 74/38/38 58/22/22 75/39/39
f 58/22/22 60/24/24 75/39/39
f 75/39/39 60/24/24 76/40/40
f 81/45/45 82/46/46 77/41/41
f 77/41/41 82/46/46 78/42/42
f 82/46/46 83/47/47 78/42/42
f 78/42/42 83/47/47 79/43/43
f 83/47/47 84/48/48 79/43/43
f 79/43/43 84/48/48 80/44/44
f 85/49/49 87/50/50 86/51/51
f 86/51/51 87/50/50 88/52/52
f 87/50/50 89/53/53 88/52/52
f 88/52/52 89/53/53 90/54/54
f 89/53/53 91/55/55 90/54/54
f 90/54/54 91/55/55 92/56/56
f 93/57/57 94/58/58 81/45/45
f 81/45/45 94/58/58 82/46/46
f 94/58/58 95/59/59 82/46/46
f 82/46/46 95/59/59 83/47/47
f 95/59/59 96/60/60 83/47/47
f 83/47/47 96/60/60 84/48/48
f 38/3/3 40/4/4 85/49/49
f 85/49/49 40/4/4 87/50/50
f 40/4/4 42/6/6 87/50/50
f 87/50/50 42/6/6 89/53/53
f 42/6/6 44/8/8 89/53/53
f 89/53/53 44/8/8 91/55/55
f 97/61/61 98/62/62 93/57/57
f 93/57/57 98/62/62 94/58/58
f 98/62/62 99/63/63 94/58/58
f 94/58/58 99/63/63 95/59/59
f 99/63/63 100/64/64 95/59/59
f 95/59/59 100/64/64 96/60/60
f 51/15/15 49/13/13 101/65/65
f 101/65/65 49/13/13 102/66/66
f 49/13/13 47/10/10 102/66/66
f 102/66/66 47/10/10 103/67/67
f 47/10/10 45/9/9 103/67/67
f 103/67/67 45/9/9 104/68/68
f 62/27/27 64/28/28 97/61/61
f 97/61/61 64/28/28 98/62/62
f 64/28/28 66/30/30 98/62/62
f 98/62/62 66/30/30 99/63/63
f 66/30/30 68/32/32 99/63/63
f 99/63/63 68/32/32 100/64/64
f 105/69/69 106/70/70 37/1/1
f 37/1/1 106/70/70 39/2/2
f 106/70/70 107/71/71 39/2/2
f 39/2/2 107/71/71 41/5/5
f 107/71/71 108/72/72 41/5/5
f 41/5/5 108/72/72 43/7/7
f 101/65/65 102/66/66 92/56/56
f 92/56/56 102/66/66 90/54/54
f 102/66/66 103/67/67 90/54/54
f 90/54/54 103/67/67 88/52/52
f 103/67/67 104/68/68 88/52/52
f 88/52/52 104/68/68 86/51/51
f 46/11/11 48/12/12 105/69/69
f 105/69/69 48/12/12 106/70/70
f 48/12/12 50/14/14 106/70/70
f 106/70/70 50/14/14 107/71/71
f 50/14/14 52/16/16 107/71/71
f 107/71/71 52/16/16 108/72/72
usemtl MODELS_bin_004:poly001Material
f 1/73/73 3/74/74 2/75/75
f 2/75/75 3/74/74 4/76/76
f 3/74/74 5/77/77 4/76/76
f 6/78/78 8/79/79 7/80/80
f 7/80/80 8/79/79 9/81/81
f 8/79/79 10/82/82 9/81/81
f 11/83/83 13/84/84 12/85/85
f 12/85/85 13/84/84 14/86/86
f 15/87/87 17/88/88 16/89/89
f 16/89/89 17/88/88 18/90/90
f 19/91/91 21/92/92 20/93/93
f 20/93/93 21/92/92 22/94/94
f 21/92/92 5/77/77 22/94/94
f 22/94/94 5/77/77 23/95/95
f 5/77/77 3/74/74 23/95/95
f 24/96/96 26/97/97 25/98/98
f 25/98/98 26/97/97 27/99/99
f 26/97/97 28/100/100 27/99/99
f 27/99/99 28/100/100 29/101/101
f 28/100/100 16/89/89 29/101/101
f 29/101/101 16/89/89 18/90/90
f 30/102/102 32/103/103 31/104/104
f 31/104/104 32/103/103 33/105/105
f 32/103/103 12/85/85 33/105/105
f 33/105/105 12/85/85 14/86/86
f 34/106/106 10/82/82 35/107/107
f 35/107/107 10/82/82 36/108/108
f 10/82/82 8/79/79 36/108/108
